<svg id="Layer_1" data-name="Layer 1" xmlns="http://www.w3.org/2000/svg" xmlns:xlink="http://www.w3.org/1999/xlink" viewBox="0 0 33.66 29.33"><defs><clipPath id="clip-path" transform="translate(-78.6 -134.97)"><rect x="67.73" y="125.59" width="55.41" height="55.41" style="fill:none"/></clipPath><clipPath id="clip-path-2" transform="translate(-78.6 -134.97)"><rect x="67.73" y="115.55" width="55.41" height="55.41" style="fill:none"/></clipPath><clipPath id="clip-path-3" transform="translate(-78.6 -134.97)"><rect x="67.73" y="134.97" width="55.41" height="55.41" style="fill:none"/></clipPath></defs><title>hamburger</title><g style="clip-path:url(#clip-path)"><path d="M110.57,154.92H80.3a1.63,1.63,0,1,1,0-3.25h30.27a1.63,1.63,0,1,1,0,3.25" transform="translate(-78.6 -134.97)" style="fill:#79797b"/><path d="M110.57,154.92H80.3a1.63,1.63,0,1,1,0-3.25h30.27A1.63,1.63,0,1,1,110.57,154.92Z" transform="translate(-78.6 -134.97)" style="fill:#dcddde"/></g><g style="clip-path:url(#clip-path-2)"><path d="M110.57,144.88H80.3a1.63,1.63,0,1,1,0-3.25h30.27a1.63,1.63,0,1,1,0,3.25" transform="translate(-78.6 -134.97)" style="fill:#79797b"/><path d="M110.57,144.88H80.3a1.63,1.63,0,1,1,0-3.25h30.27A1.63,1.63,0,1,1,110.57,144.88Z" transform="translate(-78.6 -134.97)" style="fill:#dcddde"/></g><rect x="13.14" width="7.38" height="6.67" style="fill:none"/><g style="clip-path:url(#clip-path-3)"><path d="M110.57,164.3H80.3a1.63,1.63,0,1,1,0-3.25h30.27a1.63,1.63,0,1,1,0,3.25" transform="translate(-78.6 -134.97)" style="fill:#79797b"/><path d="M110.57,164.3H80.3a1.63,1.63,0,1,1,0-3.25h30.27A1.63,1.63,0,1,1,110.57,164.3Z" transform="translate(-78.6 -134.97)" style="fill:#dcddde"/></g></svg>