<svg id="Layer_1" data-name="Layer 1" xmlns="http://www.w3.org/2000/svg" viewBox="0 0 104.34 124.79"><title>paintbrush</title><path d="M292.68,226.45c0.87-.94,1.34-1.4,1.75-1.91,12.32-15.3,24.73-30.53,36.91-46,6.75-8.55,13.18-17.37,19.6-26.19,2.32-3.19.68-7-3.08-8.31-3.14-1.07-5.43.14-7.62,2.27-10.08,9.82-20.26,19.53-30.3,29.39-10.75,10.56-21.39,21.23-32.09,31.84-1.18,1.17-2,2.1-.25,3.59s3.55,3.51,5.3,5.29Zm-41.12,42a10.61,10.61,0,0,0,.41-1.7c0.57-9.21,6.05-15,15.82-14.94a18.28,18.28,0,0,0,8.1-2.09c7.19-3.7,10.46-10.4,12.49-17.82a3,3,0,0,0-.7-2.44c-4.83-4.93-9.73-9.81-14.72-14.58a3.09,3.09,0,0,0-2.77-.45c-6.27,2.93-11.81,6.9-15.75,12.68-8.77,12.86-7.94,26.64-3.6,40.7A2.62,2.62,0,0,0,251.56,268.49Z" transform="translate(-247.67 -143.7)" style="fill:#682d2b"/><path d="M292.68,226.45l-9.78-10c-1.75-1.78-3.4-3.69-5.3-5.29s-0.93-2.42.25-3.59c10.7-10.61,21.34-21.28,32.09-31.84,10-9.86,20.22-19.57,30.3-29.39,2.19-2.13,4.48-3.34,7.62-2.27,3.76,1.28,5.4,5.13,3.08,8.31-6.42,8.81-12.84,17.63-19.6,26.19-12.17,15.42-24.59,30.65-36.91,46C294,225.05,293.55,225.51,292.68,226.45Z" transform="translate(-247.67 -143.7)" style="fill:#682d2b"/><path d="M251.56,268.49a2.62,2.62,0,0,1-.72-0.63c-4.34-14.05-5.17-27.83,3.6-40.7,3.94-5.79,9.48-9.75,15.75-12.68a3.09,3.09,0,0,1,2.77.45c5,4.77,9.88,9.65,14.72,14.58a3,3,0,0,1,.7,2.44c-2,7.42-5.31,14.12-12.49,17.82a18.28,18.28,0,0,1-8.1,2.09c-9.76,0-15.24,5.73-15.82,14.94A10.61,10.61,0,0,1,251.56,268.49Z" transform="translate(-247.67 -143.7)" style="fill:#682d2b"/></svg>